<svg xmlns="http://www.w3.org/2000/svg" width="32" height="32" viewBox="0 0 32 32" fill="none">
  <path d="M 16.00 2.00 L 16.55 2.50 L 17.09 3.00 L 17.62 3.51 L 18.11 4.01 L 18.57 4.51 L 18.98 5.01 L 19.34 5.52 L 19.63 6.02 L 19.85 6.52 L 20.00 7.02 L 20.06 7.53 L 20.04 8.03 L 19.94 8.53 L 19.75 9.03 L 19.49 9.54 L 19.15 10.04 L 18.73 10.54 L 18.26 11.04 L 17.73 11.55 L 17.16 12.05 L 16.56 12.55 L 15.94 13.05 L 15.32 13.56 L 14.71 14.06 L 14.13 14.56 L 13.59 15.06 L 13.11 15.57 L 12.70 16.07 L 12.36 16.57 L 12.10 17.07 L 11.92 17.58 L 11.82 18.08 L 11.80 18.58 L 11.86 19.08 L 12.01 19.59 L 12.23 20.09 L 12.52 20.59 L 12.88 21.09 L 13.30 21.60 L 13.76 22.10 L 14.26 22.60 L 14.78 23.10 L 15.31 23.61 L 15.84 24.11 L 16.38 24.61 L 16.91 25.12 L 17.43 25.62 L 17.93 26.12 L 18.39 26.62 L 18.81 27.13 L 19.17 27.63 L 19.48 28.13 L 19.72 28.63 L 19.90 29.14 L 20.00 29.64 L 20.00 30.00" stroke="#0e2a1c" stroke-width="1.8" fill="none" stroke-linecap="round"/>
  <path d="M 16.00 2.00 L 15.45 2.50 L 14.91 3.00 L 14.38 3.51 L 13.89 4.01 L 13.43 4.51 L 13.02 5.01 L 12.66 5.52 L 12.37 6.02 L 12.15 6.52 L 12.00 7.02 L 11.94 7.53 L 11.96 8.03 L 12.06 8.53 L 12.25 9.03 L 12.51 9.54 L 12.85 10.04 L 13.27 10.54 L 13.74 11.04 L 14.27 11.55 L 14.84 12.05 L 15.44 12.55 L 16.06 13.05 L 16.68 13.56 L 17.29 14.06 L 17.87 14.56 L 18.41 15.06 L 18.89 15.57 L 19.30 16.07 L 19.64 16.57 L 19.90 17.07 L 20.08 17.58 L 20.18 18.08 L 20.20 18.58 L 20.14 19.08 L 19.99 19.59 L 19.77 20.09 L 19.48 20.59 L 19.12 21.09 L 18.70 21.60 L 18.24 22.10 L 17.74 22.60 L 17.22 23.10 L 16.69 23.61 L 16.16 24.11 L 15.62 24.61 L 15.09 25.12 L 14.57 25.62 L 14.07 26.12 L 13.61 26.62 L 13.19 27.13 L 12.83 27.63 L 12.52 28.13 L 12.28 28.63 L 12.10 29.14 L 12.00 29.64 L 12.00 30.00" stroke="#3a5b2c" stroke-width="1.8" fill="none" stroke-linecap="round"/>
</svg>
